<?xml version="1.0" encoding="UTF-8"?>
<svg id="Layer_1" xmlns="http://www.w3.org/2000/svg" version="1.1" viewBox="0 0 720 162.21">
  <!-- Generator: Adobe Illustrator 29.0.1, SVG Export Plug-In . SVG Version: 2.1.0 Build 192)  -->
  <defs>
    <style>
      .st0 {
        fill: #231f20;
      }

      .st1 {
        fill: #ef3e42;
      }
    </style>
  </defs>
  <path class="st1" d="M124.68,52.94c-.85-8.66,1.76-28.28,2.19-31.27.56-3.97-3.21-5.5-5.71-4.55-4.15,1.57-13.07,4.41-23.27,4.59-10.96.2-24.49-7.84-27.96-13.19-3.46,5.35-16.99,13.39-27.95,13.19-10.2-.19-19.11-3.02-23.27-4.59-2.5-.95-6.27.58-5.71,4.55.43,2.99,3.03,22.61,2.19,31.27-.96,9.79-9.35,31.64-4.91,51.1,5.65,24.76,29.84,29.11,39.19,31.95,8.15,2.48,16.69,8.91,20.46,12.68,3.78-3.77,12.31-10.21,20.46-12.68,9.35-2.83,33.54-7.18,39.19-31.95,4.44-19.45-3.95-41.31-4.91-51.1ZM126.04,106.21c-4.17,12.84-15.4,21.5-34.33,26.48-6.41,1.68-16.29,6.58-21.07,11.57l-.7.73-.7-.73c-4.77-4.98-14.65-9.88-21.06-11.57-18.93-4.97-30.16-13.63-34.33-26.48-4.35-13.38-1.08-28.1,1.55-39.93.97-4.38,1.89-8.52,2.33-12.09,1.08-8.88-1.06-26.44-1.49-28.76-.49-2.64-.57-4.14.4-4.96.9-.76,2.21-.5,4.17.21,3.54,1.27,13.84,3.82,23.07,3.53,8.67-.27,19.04-5.63,25.46-10.83l.61-.49.61.49c6.43,5.2,16.79,10.56,25.47,10.83,9.22.28,19.52-2.25,23.07-3.53,1.96-.71,3.27-.97,4.17-.21.96.82.89,2.31.4,4.96-.43,2.31-2.58,19.82-1.49,28.76.43,3.57,1.35,7.71,2.33,12.08,2.63,11.83,5.9,26.55,1.55,39.94ZM75.23,149.14c0-2.48,2.01-4.32,4.39-4.32s4.37,1.83,4.37,4.32-2.01,4.34-4.37,4.34-4.39-1.83-4.39-4.34M79.62,152.76c1.96,0,3.5-1.54,3.5-3.62s-1.55-3.6-3.5-3.6-3.53,1.55-3.53,3.6,1.55,3.62,3.53,3.62ZM78.71,151.65h-.76v-4.99h1.9c1.18,0,1.76.43,1.76,1.42,0,.9-.56,1.29-1.3,1.38l1.42,2.2h-.85l-1.31-2.16h-.87v2.16ZM79.61,148.84c.64,0,1.22-.05,1.22-.81,0-.62-.56-.73-1.09-.73h-1.03v1.55h.9ZM99.98,63.17c-.45,1.25-.56,2.89-2.1,3.34-1.24.11-1.7-1.3-2.09-2.1-1.42-4.42-.91-10.03-.17-14.67.23-1.41.68-3.06,2.26-3.57,1.13-.06,1.7.85,2.21,1.7.97,4.88.85,10.49-.11,15.3ZM70.53,67.32c-.48,2.51-1.16,5.85-1.16,8.36.95-.41,2.04-.75,2.72-1.63l-1.15-6.87-.41.15ZM76.8,95.81c-.62-.45-1.36-.57-2.09-.62-.62.05-1.36.4-1.53,1.02-.28,2.83-.06,5.95.06,8.84.11.4.56.46.91.52,1.08-.06,2.04-.85,2.61-1.7.85-2.38,1.59-5.78.05-8.04ZM124.2,105.61c-3.95,12.17-14.74,20.42-32.99,25.21-6.37,1.67-16.06,6.42-21.28,11.4-5.21-4.98-14.9-9.73-21.27-11.4-18.25-4.79-29.04-13.04-32.99-25.21-4.18-12.89-1.11-26.71,1.6-38.92.98-4.43,1.91-8.61,2.36-12.28,1.18-9.71-1.25-27.94-1.51-29.34-.44-2.39-.34-3-.27-3.12.03-.01.08-.02.18-.02.26,0,.84.1,2.12.56,3.66,1.32,14.28,3.94,23.78,3.64,9.44-.29,19.75-5.88,26.01-10.78,6.26,4.9,16.58,10.49,26.01,10.78,9.49.29,20.12-2.33,23.78-3.64,1.62-.59,2.12-.59,2.27-.54.1.19.18.85-.24,3.13-.44,2.35-2.62,20.2-1.51,29.34.45,3.67,1.37,7.85,2.36,12.27,2.71,12.2,5.79,26.04,1.6,38.92ZM86.15,50.87c.34.28.74.56.96,1.02l.23,4.42.17,13.14c.12,1.75-.05,3.57-.85,4.82,1.59-.68,3.12-1.59,4.59-2.61l.11-.17c-.45-.23-.73-.51-.96-.91-.34-3.23-.23-6.75-.34-10.14v-9.69c.11-.97.62-1.81.79-2.61-.28,0-.51.29-.79.29-1.25.91-2.72,1.41-3.91,2.44ZM84.06,51.95c-3.01,1.64-5.95,3.57-8.96,5.16l-.23.51c0,1.76.28,3.97.06,5.78l.11.05c1.02-1.76.68-4.13,2.26-5.72.34-.34.85-.4,1.14.06l.17,8.67.06,10.65-.4,2.04c1.59-.45,3.12-1.36,4.36-2.49-.51-.28-1.07-.68-1.24-1.25l-.17-6.52-.06-12.24.17-.62c.34-.4.74-.91,1.36-.74,1.81.91,1.25,3.12,2.38,4.42-.23-2.32,0-4.99-.46-7.37,0-.23-.34-.4-.56-.4ZM72.73,82.6c1.47-.57,2.89-1.42,4.19-2.44,0-.4-.73-.57-.85-1.08-.96-3.23-1.53-6.63-2.38-9.86-.68-3.91-2.38-7.54-2.21-11.62l-.28.17c-2.27,4.02-2.21,8.95-3.4,13.43-1.3,5.49-1.53,11.42-3.79,16.58-.02,0-.04.02-.07.03h.05s0-.02.01-.03c2.06-.85,3.7-2.14,5.65-3.26-.68-.11-1.42,0-1.75-.68-.34-1.76.51-3.17.56-4.82.62-1.19,2.1-1.3,3.06-2.21.28-.11.79-.28.96.12l.51,2.21c.17,1.19-.11,2.49-.28,3.46ZM62.58,31.9c.4.11.85.11,1.25.28.34.28.8.68.85,1.13,0,2.32,0,4.36.17,6.63-.28,4.02.96,8.44-.85,11.73,3.74-1.87,7.43-3.97,11.05-6.29.34-1.76.34-3.74.51-5.61h-.17c-.85,3-2.72,6.18-5.95,7.14-.51.16-1.13.34-1.53-.12-.68-2.27-.23-5.1-.34-7.59,1.64-3.68,6.57-.85,8.61-4.31.34-.79.73-1.81.45-2.61l-.11.17c-.91,2.89-4.36,1.81-6.4,3.17-.85.45-1.53,1.36-2.44,1.53-.28-1.98-.4-3.85-.11-5.9.68-1.19,1.87-2.21,3.29-2.21,1.25.05,2.15,1.13,2.61,2.15.11-1.47-.17-2.77-.28-4.14-.28-.34.06-1.13-.62-1.08-2.77,1.59-5.72,3-8.5,4.76-.57.23-1.19.68-1.48,1.14ZM60.32,80c-.74-3.17-1.7-6.29-2.26-9.52-.06-1.13-.34-2.49.45-3.34-1.92.51-3.45,1.87-5.15,2.83v.23c1.76.4,2.15,2.26,2.49,3.74l3.06,11.62c.4,1.76,1.02,3.4.96,5.33,2.16-2.21,1.64-5.89,2.66-8.72l2.04-11.28.74-3.97c.34-1.42.34-3.06,1.08-4.37h-.4c-1.53.79-3.12,1.59-4.42,2.72.34,0,.62.17.79.45.91,1.81.06,3.97-.11,5.84-.57,2.83-.79,5.78-1.59,8.55-.12.06-.23-.05-.34-.11ZM47.34,40.56c.4.4,1.31.74,1.25,1.47l.34,16.04c-.06.96-.4,1.93-.74,2.66,1.81-.79,3.68-1.81,5.21-3.06h-.4c-.51-.17-1.02-.4-1.19-.97-.45-2.6-.23-5.66-.17-8.44.79-.96,2.15-1.36,3.17-2.16.57-.17,1.19-1.02,1.76-.4l.23,8.67-.28,1.19c-.23.11-.17.4-.17.51,1.42-.68,3.06-1.53,4.19-2.49l-.79-.45c-.4-.34-.34-.85-.45-1.3l-.17-16.49c.17-.62.45-1.3.62-1.87-1.42.29-2.5,1.36-3.74,1.87-.28.4-.91.34-.85.91h.4c.45.11.85.51.96.96l.06,5.72-.23.51c-1.53.79-2.89,1.98-4.53,2.44-.05-.06-.23-.17-.23-.34.11-2.55-.74-5.61.45-7.65-1.64.68-3.29,1.53-4.71,2.66ZM33.46,53.88h.23c1.59-1.36,1.7-3.46,2.1-5.38.68-1.3.74-3.29,2.38-3.8.34.28.23.73.34,1.08l.23,13.32c-.17,2.55.79,5.67-1.08,7.65,1.98-1.08,4.08-1.93,5.89-3.34h-.68c-.4-.06-.79-.34-.96-.74-.11-6.46-.57-12.52-.4-19.15.23-.4.57-.85,1.13-.68,1.81,1.19,1.47,3.51,3.4,4.53-1.25-2.16-.91-4.99-1.36-7.48l-.23-.62c-3.4,1.65-6.63,3.74-9.86,5.55-.91,2.89.34,6.4-1.13,9.07ZM32.21,82.55c-.96-.23-1.98.28-2.72.91-2.32-1.02-5.16-1.13-7.31.28-2.21,1.47-3.17,4.14-2.49,6.8,1.47,5.83,10.43,6.91,9.63,13.71-.23,1.81-1.87,3.51-3.57,3.97-1.25.23-2.38-.06-3.17-1.13-.45-.51-.28-1.08-.34-1.81.17-.57.74-.96,1.25-1.25.4-.23.85.29,1.13-.17-.06-.51-.28-.96-.74-1.3-.91-.62-2.38-.62-3.34,0-1.3,1.02-1.98,2.72-1.47,4.47.51,1.76,2.27,3.29,4.02,3.63,2.94.57,5.5-.68,7.26-2.72,1.98-2.61,2.26-6.46,1.08-9.52-2.1-4.14-7.26-5.33-9.07-9.4-.51-1.36.17-2.55,1.13-3.51,1.19-.85,2.89-1.02,4.19-.34.96.46,1.24,1.42,1.36,2.33-.06.68-.29,1.3-.68,1.87.23.4.91.17,1.25.23.62.51,1.13,1.48,2.1,1.48-.74-2.32-1.02-5.78.51-7.88v-.62ZM46.55,98.36c.06-.68-.8-1.13-.91-1.81-1.76-6.12-3.23-12.35-5.04-18.47,0-.74-.06-1.7.57-2.26-1.59.4-2.04,2.21-2.66,3.51-1.59,8.11-2.78,16.43-4.47,24.53-.28.8-.79,1.48-1.02,2.32,1.81-1.02,4.14-1.98,5.72-3.51-.28.12-.4-.11-.68-.06-1.94-.82-.68-4.01-.42-5.27.11-.56.18-1.56.85-1.82.38-.15,1.32-.81,2.08-1.08.56-.2.88-.49,1.25.65.57,1.93,1.29,3.9.1,5.77,1.64-.62,3.17-1.53,4.65-2.49ZM55.5,92.98c.12-.57.06-1.19.17-1.76-.11-1.98,0-3.91.68-5.61h-.45c-2.26,1.87-1.24,5.27-3.23,7.31-.45.23-.85.62-1.41.45-.57-.17-.51-.68-.68-1.08-.23-5.27-.23-10.43-.28-15.64.17-1.81-.17-3.85.85-5.33-1.98.74-3.68,2.1-5.55,3.23.79.05,1.7.45,1.98,1.36l.11,5.61.23,13.26-.17,2.6.17.11c2.49-1.47,5.15-2.83,7.59-4.53ZM68.3,120.29c-.28-.23-.91-.62-.96-1.13l-2.38-10.48c-.79-4.19-2.27-8.11-2.66-12.47-1.36,1.19-1.76,2.83-2.44,4.3-.85,5.27-2.04,10.43-2.94,15.7-.74,3.74-1.13,7.59-2.49,11.11-.28.68-.96,1.13-1.08,1.81,1.87-.79,3.63-1.87,5.38-3.06l.06-.28c-.51.05-.97-.17-1.25-.68-.17-2.04.51-4.08.74-6.12,1.25-1.08,2.78-1.76,4.25-2.44.29-.17,1.02-.51,1.19.06.46,1.87,1.48,3.85.8,5.78,1.19-.45,2.61-1.08,3.8-2.09ZM84.57,116.83c-.91.11-1.93.11-2.66-.28-3.18-2.15-4.14-5.89-4.99-9.35-.34-1.64,1.7-2.05,2.32-3.23,1.53-2.16,2.33-5.44,1.08-7.99-.45-.79-1.19-1.64-1.98-2.21-2.1-1.3-4.99-.57-6.97.51-1.08.62-2.38,1.25-3.12,2.21h.74c.4.05.85.4,1.02.85.17,4.54.17,9.29.28,13.71-.28,2.66.51,5.44-.17,8.04,1.48-.57,2.83-1.3,4.08-2.26,0-.51-.79-.4-.96-.96.11-2.89-.12-5.89-.06-8.78l.28-.34.28.28c.4,1.42.96,2.83,1.47,4.25,1.47,2.89,3.57,7.2,7.54,6.97.74-.17,1.7-.62,1.81-1.41ZM96.52,103.51c-.4-.34-.91-.68-1.02-1.19l-.28-11.39v-7.65c0-.96.45-1.81.45-2.72-1.13.51-2.32,1.08-3.23,1.98-1.08,3.63-2.16,7.14-3.12,10.77-.23.17-.23.85-.68.62-1.3-2.27-2.6-4.48-3.91-6.69-1.3.06-2.44,1.19-3.46,1.93.68.28,1.53.68,1.76,1.48l.23,8.16.11,9.63c0,1.19-.51,2.32-.79,3.23,1.41-.62,3-1.41,4.25-2.43-.28-.34-.79-.63-1.08-1.02-.4-4.54-.05-8.73-.28-13.26.06-.23.23-.34.45-.28.96,1.3,1.47,2.66,2.38,4.02.23.51.57,1.19,1.13,1.36,1.02-2.78,1.75-5.61,2.77-8.39.06-.05.17-.23.29-.05l.22,10.37c0,1.36.23,2.55-.17,3.74,1.41-.51,2.72-1.25,3.97-2.21ZM97.88,68.44c1.76-.28,2.89-1.98,3.74-3.4,2.49-5.61,2.89-12.92.4-18.64-.85-1.41-2.1-2.49-3.8-2.38-4.19.68-5.38,5.21-6.18,8.55-.79,4.93-.4,10.54,2.27,14.62.96.91,2.21,1.47,3.57,1.25ZM111.99,71.21c-.28-.34-.4-.96-.91-1.08-.96-.51-2.27-.56-3.17.06-.06.11-.28.4-.11.62,1.25.51,1.81,1.76,1.81,3.06-.4,3.8-2.32,6.97-3.45,10.54-.28.23-.28.96-.79.73-1.02-1.59-1.53-3.34-2.44-4.98-.74-1.19-.12-2.72.11-3.85-1.76.62-3.23,1.76-4.82,2.77l1.08.8c1.59,2.83,3,5.72,4.36,8.67.28,2.67.28,5.55.28,8.27-.05,1.08-.68,2.04-.96,2.95,1.64-1.02,3.4-1.81,4.93-3-.23-.34-.85-.68-.91-1.13-.23-2.38-.17-5.04-.11-7.36,1.64-4.59,3.62-9.07,5.1-13.71.51-1.02.51-2.38,0-3.35ZM114.82,59.71c-1.81-5.55-1.53-12.13-.79-18.08.17-2.72,1.08-5.61.17-8.22-.45-.45-.79-1.19-1.53-1.19-.85-.28-1.47.34-2.09.85-.51.96,1.07,1.24,1.24,2.09.34,4.19-.4,8.27-.4,12.41-.11.11-.17.23-.28.17-1.41-2.61-2.44-5.44-3.68-8.1-.11-.4-.51-.91-1.02-.68-1.25.57-2.38,1.3-3.46,2.15.74.34,1.81.4,2.1,1.36.28,6.12.28,12.75.28,19.15,0,.68-.4,1.24-.4,1.81,1.19-.62,2.55-1.13,3.51-2.15-.28-.17-.8-.45-.91-.85l-.17-12.18.17-.34c1.64,2.61,2.55,5.61,3.96,8.33.57,1.36,1.19,3,2.61,3.8.23.11.8.11.68-.34ZM39.63,84.83c-.48,2.52-1.16,5.84-1.16,8.36.95-.41,2.04-.75,2.72-1.63l-1.15-6.87-.41.15ZM60.94,105.61l-.4,1.13c-.45,3.06-1.24,6.01-1.41,9.06,1.36-.11,2.55-1.08,3.74-1.76.12-.4.12-.68,0-1.08-.73-2.44-.96-5.04-1.92-7.36Z"/>
  <path class="st1" d="M165.53,47.4c0-13.83,0-16.38-.18-19.29-.18-3.09-.91-4.55-3.91-5.19-.73-.18-2.28-.27-3.55-.27-1,0-1.55-.18-1.55-.82s.64-.82,2-.82c4.82,0,10.56.27,12.47.27,3.09,0,10.01-.27,12.83-.27,5.73,0,11.83.55,16.74,3.91,2.55,1.73,6.19,6.37,6.19,12.47,0,6.73-2.73,12.83-11.92,20.29,8.1,10.19,14.38,18.38,19.75,24.02,5.1,5.28,8.74,5.92,10.1,6.19,1,.18,1.82.27,2.55.27s1.09.27,1.09.73c0,.73-.64.91-1.73.91h-8.92c-5.1,0-7.37-.45-9.74-1.73-3.91-2.09-7.37-6.37-12.47-13.38-3.64-5.01-7.83-11.19-9.01-12.56-.46-.55-1-.64-1.64-.64l-7.64-.18c-.45,0-.73.18-.73.73v1.27c0,8.46,0,15.65.46,19.47.27,2.64.82,4.64,3.55,5.01,1.36.18,3.37.36,4.46.36.73,0,1.09.27,1.09.73,0,.64-.64.91-1.82.91-5.28,0-12.01-.27-13.38-.27-1.73,0-7.46.27-11.1.27-1.18,0-1.82-.27-1.82-.91,0-.46.36-.73,1.46-.73,1.36,0,2.46-.18,3.28-.36,1.82-.36,2.28-2.37,2.64-5.01.46-3.82.46-11.01.46-19.38v-16.02ZM176.27,54.59c0,1,.18,1.36.82,1.64,1.91.64,4.64.91,6.92.91,3.64,0,4.82-.36,6.46-1.55,2.73-2,5.37-6.19,5.37-13.65,0-12.92-8.55-16.65-13.92-16.65-2.28,0-3.91.09-4.82.36-.64.18-.82.55-.82,1.27v27.66ZM227.96,47.4c0-13.83,0-16.38-.18-19.29-.18-3.09-.91-4.55-3.91-5.19-.73-.18-2.28-.27-3.55-.27-1,0-1.55-.18-1.55-.82s.64-.82,2-.82c4.19,0,8.37.27,13.1.27,2.91,0,21.02,0,22.75-.09,1.73-.18,3.18-.36,3.91-.55.45-.09,1-.36,1.46-.36s.55.36.55.82c0,.64-.46,1.73-.73,5.92-.09.91-.27,4.91-.46,6.01-.09.46-.27,1-.91,1s-.82-.55-.82-1.64c0-.36-.09-1.82-.55-2.91-.64-1.64-1.55-2.73-6.1-3.28-1.55-.18-11.1-.36-12.92-.36-.45,0-.64.27-.64.91v23.02c0,.64.09,1,.64,1,2,0,12.47,0,14.56-.18,2.18-.18,3.55-.46,4.37-1.36.64-.73,1-1.18,1.46-1.18.36,0,.64.18.64.73s-.36,2-.73,6.64c-.09,1.82-.36,5.46-.36,6.1,0,.73,0,1.73-.82,1.73-.64,0-.82-1-.82-1.46-.09-.91-.09-1.46-.36-2.64-.46-1.82-1.73-3.19-5.1-3.55-1.73-.18-10.74-.27-12.92-.27-.46,0-.55.36-.55.91v7.19c0,3.09-.09,11.47,0,14.11.18,6.28,1.64,7.64,10.92,7.64,2.37,0,6.19,0,8.55-1.09,2.37-1.09,3.46-3,4.1-6.73.18-1,.36-1.36,1-1.36.73,0,.73.73.73,1.64,0,2.09-.73,8.28-1.18,10.1-.64,2.37-1.46,2.37-4.91,2.37-8.1,0-16.11-.55-25.21-.55-3.64,0-7.37.27-11.47.27-1.18,0-1.82-.27-1.82-.91,0-.46.36-.73,1.46-.73,1.36,0,2.46-.18,3.28-.36,1.82-.36,2.28-2.37,2.64-5.01.46-3.82.46-11.01.46-19.38v-16.02ZM277.78,47.4c0-13.83,0-16.38-.18-19.29-.18-3.09-.91-4.55-3.91-5.19-.73-.18-2.28-.27-3.55-.27-1,0-1.55-.18-1.55-.82s.64-.82,2-.82c4.82,0,10.56.27,13.1.27,2.82,0,8.55-.27,14.01-.27,11.37,0,26.57,0,36.49,10.37,4.55,4.73,8.83,12.29,8.83,23.11,0,11.47-4.82,20.2-9.92,25.39-4.19,4.28-13.65,10.74-30.49,10.74-3.28,0-7.01-.27-10.47-.55-3.46-.27-6.64-.55-8.92-.55-1,0-3,0-5.19.09-2.09,0-4.46.18-6.28.18-1.18,0-1.82-.27-1.82-.91,0-.46.36-.73,1.46-.73,1.36,0,2.46-.18,3.28-.36,1.82-.36,2.28-2.37,2.64-5.01.46-3.82.46-11.01.46-19.38v-16.02ZM289.15,57.41c0,9.65.09,16.65.18,18.38.09,2.28.27,5.92,1,6.92,1.18,1.73,4.73,3.64,11.92,3.64,9.28,0,15.47-1.82,20.93-6.55,5.82-5,7.64-13.29,7.64-22.66,0-11.56-4.82-19.02-8.74-22.75-8.37-8.01-18.75-9.1-25.84-9.1-1.82,0-5.19.27-5.92.64-.82.36-1.09.82-1.09,1.82-.09,3.09-.09,11.01-.09,18.2v11.47ZM380.45,88.72c-1.46-.64-1.73-1.09-1.73-3.09,0-5,.36-10.47.46-11.92.09-1.37.36-2.37,1.09-2.37.82,0,.91.82.91,1.55,0,1.18.36,3.09.82,4.64,2,6.73,7.37,9.19,13.01,9.19,8.19,0,12.19-5.55,12.19-10.37,0-4.46-1.36-8.65-8.92-14.56l-4.19-3.28c-10.01-7.83-13.47-14.2-13.47-21.57,0-10.01,8.37-17.2,21.02-17.2,3.46,0,6.19.36,8.37.73,1.55.27,2.73.55,3.73.82.82.18,1.27.46,1.27,1.09,0,1.18-.36,3.82-.36,10.92,0,2-.27,2.73-1,2.73-.64,0-.91-.55-.91-1.64,0-.82-.45-3.64-2.37-6.01-1.36-1.73-4-4.46-9.92-4.46-6.73,0-10.83,3.91-10.83,9.37,0,4.19,2.09,7.37,9.65,13.1l2.55,1.91c11.01,8.28,14.92,14.56,14.92,23.21,0,5.28-2,11.56-8.55,15.83-4.55,2.91-9.65,3.73-14.47,3.73-5.28,0-9.37-.64-13.29-2.37ZM476.75,49.95c.27,0,.55-.18.55-.64v-1.91c0-13.83,0-16.38-.18-19.29-.18-3.09-.91-4.55-3.91-5.19-.73-.18-2.28-.27-3.55-.27-1,0-1.55-.18-1.55-.82s.64-.82,1.91-.82c4.91,0,10.65.27,13.1.27,2.18,0,7.92-.27,11.47-.27,1.27,0,1.91.18,1.91.82s-.55.82-1.64.82c-.73,0-1.55.09-2.64.27-2.46.45-3.18,2-3.37,5.19-.18,2.91-.18,5.46-.18,19.29v16.02c0,8.37,0,15.56.46,19.47.27,2.55.82,4.55,3.55,4.91,1.27.18,3.28.36,4.64.36,1,0,1.46.27,1.46.73,0,.64-.73.91-1.82.91-5.92,0-11.65-.27-14.2-.27-2.09,0-7.83.27-11.37.27-1.27,0-1.91-.27-1.91-.91,0-.46.36-.73,1.46-.73,1.36,0,2.46-.18,3.28-.36,1.82-.36,2.28-2.37,2.64-5.01.46-3.82.46-11.01.46-19.38v-8.01c0-.36-.27-.55-.55-.55h-34.76c-.27,0-.55.09-.55.55v8.01c0,8.37,0,15.56.46,19.47.27,2.55.82,4.55,3.55,4.91,1.27.18,3.28.36,4.64.36,1,0,1.46.27,1.46.73,0,.64-.73.91-1.82.91-5.92,0-11.65-.27-14.2-.27-2.09,0-7.83.27-11.47.27-1.18,0-1.82-.27-1.82-.91,0-.46.36-.73,1.46-.73,1.36,0,2.46-.18,3.28-.36,1.82-.36,2.28-2.37,2.64-5.01.46-3.82.46-11.01.46-19.38v-16.02c0-13.83,0-16.38-.18-19.29-.18-3.09-.91-4.55-3.91-5.19-.73-.18-2.28-.27-3.55-.27-1,0-1.55-.18-1.55-.82s.64-.82,1.91-.82c4.91,0,10.65.27,13.1.27,2.18,0,7.92-.27,11.47-.27,1.27,0,1.91.18,1.91.82s-.82.82-1.64.82c-.73,0-1.91.09-2.64.18-2.46.36-3.18,2.09-3.37,5.28-.18,2.91-.18,5.46-.18,19.29v1.91c0,.46.27.64.55.64h34.76ZM511.93,47.4c0-13.83,0-16.38-.18-19.29-.18-3.09-1.09-4.64-3.09-5.1-1-.27-2.18-.36-3.28-.36-.91,0-1.46-.18-1.46-.91,0-.55.73-.73,2.18-.73,3.46,0,9.19.27,11.83.27,2.28,0,7.64-.27,11.1-.27,1.18,0,1.91.18,1.91.73,0,.73-.55.91-1.46.91s-1.64.09-2.73.27c-2.46.45-3.18,2-3.37,5.19-.18,2.91-.18,5.46-.18,19.29v16.02c0,8.83,0,16.02.36,19.93.27,2.46.91,4.1,3.64,4.46,1.27.18,3.28.36,4.64.36,1,0,1.46.27,1.46.73,0,.64-.73.91-1.73.91-6.01,0-11.74-.27-14.2-.27-2.09,0-7.83.27-11.47.27-1.18,0-1.82-.27-1.82-.91,0-.46.36-.73,1.46-.73,1.36,0,2.46-.18,3.28-.36,1.82-.36,2.37-1.91,2.64-4.55.46-3.82.46-11.01.46-19.84v-16.02ZM546.33,47.4c0-13.83,0-16.38-.18-19.29-.18-3.09-.91-4.55-3.91-5.19-.73-.18-2.28-.27-3.55-.27-1,0-1.55-.18-1.55-.82s.64-.82,2-.82c4.19,0,8.37.27,13.1.27,2.91,0,21.02,0,22.75-.09,1.73-.18,3.18-.36,3.91-.55.45-.09,1-.36,1.46-.36s.55.36.55.82c0,.64-.46,1.73-.73,5.92-.09.91-.27,4.91-.46,6.01-.09.46-.27,1-.91,1s-.82-.55-.82-1.64c0-.36-.09-1.82-.55-2.91-.64-1.64-1.55-2.73-6.1-3.28-1.55-.18-11.1-.36-12.92-.36-.45,0-.64.27-.64.91v23.02c0,.64.09,1,.64,1,2,0,12.47,0,14.56-.18,2.18-.18,3.55-.46,4.37-1.36.64-.73,1-1.18,1.46-1.18.36,0,.64.18.64.73s-.36,2-.73,6.64c-.09,1.82-.36,5.46-.36,6.1,0,.73,0,1.73-.82,1.73-.64,0-.82-1-.82-1.46-.09-.91-.09-1.46-.36-2.64-.46-1.82-1.73-3.19-5.1-3.55-1.73-.18-10.74-.27-12.92-.27-.46,0-.55.36-.55.91v7.19c0,3.09-.09,11.47,0,14.11.18,6.28,1.64,7.64,10.92,7.64,2.37,0,6.19,0,8.55-1.09,2.37-1.09,3.46-3,4.1-6.73.18-1,.36-1.36,1-1.36.73,0,.73.73.73,1.64,0,2.09-.73,8.28-1.18,10.1-.64,2.37-1.46,2.37-4.91,2.37-8.1,0-16.11-.55-25.21-.55-3.64,0-7.37.27-11.47.27-1.18,0-1.82-.27-1.82-.91,0-.46.36-.73,1.46-.73,1.36,0,2.46-.18,3.28-.36,1.82-.36,2.28-2.37,2.64-5.01.46-3.82.46-11.01.46-19.38v-16.02ZM607.36,63.42c0,11.65,0,17.93,1.91,19.57,1.55,1.36,3.91,2,11.01,2,4.82,0,8.37-.09,10.65-2.55,1.09-1.18,2.18-3.73,2.37-5.46.09-.82.27-1.36,1-1.36.64,0,.73.46.73,1.55,0,1-.64,7.83-1.37,10.47-.55,2-1,2.46-5.73,2.46-8.37,0-16.74-.55-26.48-.55-3.64,0-7.37.27-11.47.27-1.18,0-1.82-.27-1.82-.91,0-.46.36-.73,1.46-.73,1.36,0,2.46-.18,3.28-.36,1.82-.36,2.28-2.37,2.64-5.01.46-3.82.46-11.01.46-19.38v-16.02c0-13.83,0-16.38-.18-19.29-.18-3.09-.91-4.55-3.91-5.19-.73-.18-1.82-.27-3-.27-1,0-1.55-.18-1.55-.82s.64-.82,2-.82c4.28,0,10.01.27,12.47.27,2.18,0,8.83-.27,12.38-.27,1.27,0,1.91.18,1.91.82s-.55.82-1.64.82c-1,0-2.46.09-3.55.27-2.46.45-3.18,2-3.37,5.19-.18,2.91-.18,5.46-.18,19.29v16.02ZM645.75,47.4c0-13.83,0-16.38-.18-19.29-.18-3.09-.91-4.55-3.91-5.19-.73-.18-2.28-.27-3.55-.27-1,0-1.55-.18-1.55-.82s.64-.82,2-.82c4.82,0,10.56.27,13.1.27,2.82,0,8.55-.27,14.01-.27,11.37,0,26.57,0,36.49,10.37,4.55,4.73,8.83,12.29,8.83,23.11,0,11.47-4.82,20.2-9.92,25.39-4.19,4.28-13.65,10.74-30.49,10.74-3.28,0-7.01-.27-10.47-.55-3.46-.27-6.64-.55-8.92-.55-1,0-3,0-5.19.09-2.09,0-4.46.18-6.28.18-1.18,0-1.82-.27-1.82-.91,0-.46.36-.73,1.46-.73,1.36,0,2.46-.18,3.28-.36,1.82-.36,2.28-2.37,2.64-5.01.46-3.82.46-11.01.46-19.38v-16.02ZM657.13,57.41c0,9.65.09,16.65.18,18.38.09,2.28.27,5.92,1,6.92,1.18,1.73,4.73,3.64,11.92,3.64,9.28,0,15.47-1.82,20.93-6.55,5.82-5,7.64-13.29,7.64-22.66,0-11.56-4.82-19.02-8.74-22.75-8.37-8.01-18.75-9.1-25.84-9.1-1.82,0-5.19.27-5.92.64-.82.36-1.09.82-1.09,1.82-.09,3.09-.09,11.01-.09,18.2v11.47Z"/>
  <path class="st0" d="M171.17,127.92l-12.85-19.36h6.65l9.13,14.19,9.03-14.19h6.65l-12.81,19.36v13.75h-5.81v-13.75ZM219.03,108.02c9.93,0,16.92,7.25,16.92,17.12s-7,17.12-16.92,17.12-16.92-7.25-16.92-17.12,7-17.12,16.92-17.12ZM219.03,113.18c-6.7,0-10.97,5.11-10.97,11.96s4.27,11.96,10.97,11.96,10.97-5.16,10.97-11.96-4.32-11.96-10.97-11.96ZM254.25,108.56h5.86v19.85c0,5.26,2.93,8.69,8.49,8.69s8.44-3.42,8.44-8.69v-19.85h5.86v20c0,8.24-4.71,13.7-14.29,13.7s-14.34-5.51-14.34-13.65v-20.05ZM310.06,113.67h-10.03v-5.11h25.86v5.11h-10.03v27.99h-5.81v-27.99ZM366.05,127.22h-17.22v14.44h-5.81v-33.1h5.81v13.55h17.22v-13.55h5.81v33.1h-5.81v-14.44ZM416.49,125.14c0-10.17,7.59-17.12,17.12-17.12,6.95,0,11.07,3.47,13.55,7.44l-4.96,2.53c-1.59-2.73-4.76-4.81-8.59-4.81-6.3,0-11.17,5.01-11.17,11.96s4.86,11.96,11.17,11.96c3.82,0,7-2.03,8.59-4.82l4.96,2.53c-2.53,3.97-6.6,7.44-13.55,7.44-9.53,0-17.12-6.95-17.12-17.12ZM464.74,108.56h22.68v5.11h-16.88v8.59h16.53v5.11h-16.53v9.18h16.88v5.11h-22.68v-33.1ZM512.52,117.55v24.12h-5.81v-33.1h5.96l16.92,23.48v-23.48h5.81v33.1h-5.61l-17.27-24.12ZM562.57,113.67h-10.03v-5.11h25.86v5.11h-10.03v27.99h-5.81v-27.99ZM595.53,108.56h22.68v5.11h-16.87v8.59h16.53v5.11h-16.53v9.18h16.87v5.11h-22.68v-33.1ZM649.06,129.31h-5.76v12.36h-5.81v-33.1h14.54c6.55,0,10.82,4.27,10.82,10.37s-3.87,9.08-7.84,9.73l8.09,13h-6.7l-7.35-12.36ZM651.25,113.67h-7.94v10.52h7.94c3.28,0,5.66-2.08,5.66-5.26s-2.38-5.26-5.66-5.26ZM682.31,132.53c2.28,2.43,5.86,4.57,10.47,4.57s6.65-2.33,6.65-4.52c0-2.98-3.52-3.87-7.54-4.91-5.41-1.34-11.76-2.93-11.76-9.93,0-5.46,4.81-9.68,12.06-9.68,5.16,0,9.33,1.64,12.41,4.62l-3.33,4.32c-2.58-2.58-6.1-3.77-9.58-3.77s-5.61,1.64-5.61,4.12,3.38,3.42,7.3,4.42c5.46,1.39,11.96,3.08,11.96,10.27,0,5.51-3.87,10.22-12.81,10.22-6.1,0-10.52-2.13-13.45-5.26l3.23-4.47Z"/>
</svg>